<?xml version="1.0" encoding="UTF-8"?><svg id="_レイヤー_2" xmlns="http://www.w3.org/2000/svg" viewBox="0 0 63.36 36.18"><defs><style>.cls-1{fill:#fff;}.cls-1,.cls-2{stroke-width:0px;}.cls-2{fill:#003371;}</style></defs><g id="_ホーム"><path class="cls-2" d="M51.23,18.08c3.82-4.22,7.74-9.2,11.77-14.93.63-.9.42-2.15-.49-2.79-.91-.64-2.15-.42-2.79.49-3.87,5.51-7.61,10.29-11.22,14.32C38.66,5.08,29.57.19,21.38.65,13.19,1.09,6.09,6.67.25,17.25c-.33.6-.33,1.33,0,1.93,5.73,10.39,12.8,15.88,21,16.32,8.27.43,17.38-4.42,27.24-14.51,3.61,4.04,7.35,8.82,11.22,14.34.39.55,1.01.85,1.64.85.4,0,.8-.12,1.15-.36.9-.63,1.12-1.88.49-2.79-4.03-5.74-7.95-10.73-11.77-14.95Z"/><circle class="cls-1" cx="15.14" cy="14.64" r="2.4"/></g></svg>