<?xml version="1.0" encoding="UTF-8"?><svg id="_レイヤー_2" xmlns="http://www.w3.org/2000/svg" viewBox="0 0 51.35 49.2"><defs><style>.cls-1{fill:gray;stroke-width:0px;}</style></defs><g id="_ホーム"><path class="cls-1" d="M11.04,49.2c-.41,0-.83-.13-1.17-.38-.62-.45-.93-1.21-.8-1.96l2.62-15.32L.6,20.69c-.54-.53-.74-1.33-.5-2.05.24-.72.86-1.25,1.61-1.36l15.32-2.23L23.88,1.12c.34-.68,1.03-1.12,1.79-1.12h0c.76,0,1.46.43,1.79,1.12l6.85,13.93,15.32,2.23c.75.11,1.38.64,1.61,1.36.24.72.04,1.52-.5,2.05l-11.09,10.85,2.62,15.32c.13.75-.18,1.51-.8,1.96s-1.43.51-2.11.15l-13.7-7.23-13.7,7.23c-.29.16-.61.23-.93.23ZM6.29,20.66l8.95,8.76c.47.46.68,1.12.57,1.77l-2.11,12.35,11.04-5.83c.58-.31,1.28-.31,1.87,0l11.04,5.83-2.11-12.35c-.11-.65.1-1.31.57-1.77l8.95-8.76-12.36-1.8c-.65-.1-1.21-.51-1.51-1.1l-5.52-11.23-5.52,11.23c-.29.59-.85,1-1.51,1.1l-12.36,1.8Z"/></g></svg>