<?xml version="1.0" encoding="UTF-8"?><svg id="_レイヤー_2" xmlns="http://www.w3.org/2000/svg" viewBox="0 0 56.7 45"><defs><style>.cls-1{fill:gray;stroke-width:0px;}</style></defs><g id="_ホーム"><path class="cls-1" d="M55.86,18.82L29.95.37c-.68-.49-1.6-.5-2.29-.02L.87,18.8c-.91.63-1.14,1.87-.51,2.78.39.56,1.01.87,1.65.87.39,0,.79-.11,1.13-.35l2.39-1.65h.91v23.06c0,.83.67,1.5,1.5,1.5h14.22c.83,0,1.5-.67,1.5-1.5v-11.61h8.97v11.61c0,.83.67,1.5,1.5,1.5h14.22c.83,0,1.5-.67,1.5-1.5v-23.06h1.41l2.29,1.63c.9.64,2.15.43,2.79-.47.64-.9.43-2.15-.47-2.79Z"/></g></svg>