<?xml version="1.0" encoding="UTF-8"?><svg id="_レイヤー_2" xmlns="http://www.w3.org/2000/svg" viewBox="0 0 63.36 36.18"><defs><style>.cls-1{fill:gray;stroke-width:0px;}</style></defs><g id="_ホーム"><path class="cls-1" d="M61.36,36.18c-.63,0-1.25-.3-1.64-.85-3.87-5.52-7.62-10.3-11.22-14.34-9.86,10.09-18.98,14.96-27.24,14.51-8.2-.44-15.27-5.93-21-16.32-.33-.6-.33-1.33,0-1.93C6.09,6.67,13.19,1.09,21.38.65c8.19-.45,17.28,4.43,27.12,14.53,3.61-4.03,7.35-8.81,11.22-14.32.63-.9,1.88-1.12,2.79-.49.9.63,1.12,1.88.49,2.79-4.02,5.74-7.95,10.72-11.77,14.94,3.81,4.22,7.74,9.21,11.77,14.95.63.9.42,2.15-.49,2.79-.35.25-.75.36-1.15.36ZM4.3,18.22c4.91,8.47,10.68,12.94,17.17,13.29,7.17.37,15.32-4.12,24.33-13.43-8.99-9.31-17.09-13.82-24.21-13.44-6.48.35-12.29,4.91-17.29,13.57Z"/><circle class="cls-1" cx="15.14" cy="14.64" r="2.4"/></g></svg>