<?xml version="1.0" encoding="UTF-8"?><svg id="_レイヤー_2" xmlns="http://www.w3.org/2000/svg" viewBox="0 0 41.59 41.59"><defs><style>.cls-1{fill:gray;stroke-width:0px;}</style></defs><g id="_ホーム"><path class="cls-1" d="M29.2,21.14c2.36-2.23,3.85-5.39,3.85-8.89,0-6.76-5.5-12.25-12.25-12.25s-12.25,5.5-12.25,12.25c0,3.5,1.48,6.66,3.85,8.89C4.73,23.16,0,29.95,0,39.59c0,1.1.9,2,2,2s2-.9,2-2c0-9.45,5-15.09,13.38-15.09h6.83c8.38,0,13.38,5.64,13.38,15.09,0,1.1.9,2,2,2s2-.9,2-2c0-9.64-4.73-16.43-12.39-18.45ZM20.8,4c4.55,0,8.25,3.7,8.25,8.25s-3.7,8.25-8.25,8.25-8.25-3.7-8.25-8.25,3.7-8.25,8.25-8.25Z"/></g></svg>