<?xml version="1.0" encoding="UTF-8"?><svg id="_レイヤー_2" xmlns="http://www.w3.org/2000/svg" viewBox="0 0 51.35 49.2"><defs><style>.cls-1{fill:#003371;stroke-width:0px;}</style></defs><g id="_ホーム"><path class="cls-1" d="M51.25,18.64c-.24-.72-.86-1.25-1.61-1.36l-15.32-2.23L27.47,1.12c-.34-.68-1.03-1.12-1.79-1.12s-1.46.43-1.79,1.12l-6.85,13.93-15.32,2.23c-.75.11-1.38.64-1.61,1.36-.24.72-.04,1.52.5,2.05l11.09,10.85-2.62,15.32c-.13.75.18,1.51.8,1.96.35.25.76.38,1.17.38.32,0,.64-.08.93-.23l13.7-7.23,13.7,7.23c.67.36,1.49.3,2.11-.15.62-.45.93-1.21.8-1.96l-2.62-15.32,11.09-10.85c.54-.53.74-1.33.5-2.05Z"/></g></svg>